<?xml version="1.0" standalone="no"?><!DOCTYPE svg PUBLIC "-//W3C//DTD SVG 1.1//EN" "http://www.w3.org/Graphics/SVG/1.1/DTD/svg11.dtd"><svg t="1613669345113" class="icon" viewBox="0 0 1152 1024" version="1.1" xmlns="http://www.w3.org/2000/svg" p-id="2931" width="225" height="200" xmlns:xlink="http://www.w3.org/1999/xlink"><defs><style type="text/css"></style></defs><path d="M1149.76 911.168L1056 93.12C1056 41.664 1013.056 0 960 0H192c-53.056 0-96 41.664-96 93.12L2.24 911.168c-1.408 6.4-2.24 12.928-2.24 19.712C0 982.336 42.944 1024 96 1024h960c53.056 0 96-41.664 96-93.12a95.36 95.36 0 0 0-2.24-19.712zM816 228.416v50.816C816 407.616 708.352 512 576 512S336 407.616 336 279.296v-50.88a69.696 69.696 0 0 1-48-65.536c0-38.528 32.256-69.824 72-69.824s72 31.296 72 69.824v116.352c0 76.992 64.576 139.648 144 139.648s144-62.656 144-139.648V162.88c0-38.528 32.256-69.824 72-69.824s72 31.296 72 69.824c0 30.4-20.096 56-48 65.536z" p-id="2932" fill="#d4237a"></path></svg>