<?xml version="1.0" standalone="no"?><!DOCTYPE svg PUBLIC "-//W3C//DTD SVG 1.1//EN" "http://www.w3.org/Graphics/SVG/1.1/DTD/svg11.dtd"><svg t="1613668382383" class="icon" viewBox="0 0 1024 1024" version="1.1" xmlns="http://www.w3.org/2000/svg" p-id="7723" xmlns:xlink="http://www.w3.org/1999/xlink" width="200" height="200"><defs><style type="text/css"></style></defs><path d="M490.666667 533.333333v256a64 64 0 0 1-64 64h-192a64 64 0 0 1-64-64v-192a64 64 0 0 1 64-64h256z m298.666666 0a64 64 0 0 1 64 64v192a64 64 0 0 1-64 64h-192a64 64 0 0 1-64-64V533.333333h256zM426.666667 170.666667a64 64 0 0 1 64 64v256H234.666667a64 64 0 0 1-64-64v-192a64 64 0 0 1 64-64h192z m266.666666 0a160 160 0 1 1 0 320 160 160 0 0 1 0-320z" p-id="7724" fill="#d4237a"></path></svg>